<svg width="606" height="583" viewBox="0 0 606 583" fill="none" xmlns="http://www.w3.org/2000/svg">
<path d="M265.467 493.551C265.467 505.52 257.396 515.698 246.159 520.033C242.481 521.352 238.599 522.2 234.41 522.2C230.222 522.2 227.975 521.918 222.969 521.069C200.8 518.431 181.594 516.923 162.082 512.211C40.1041 483.75 -50 381.686 -50 260.303C-50 164.648 5.8809 81.1495 89.1404 36.0078C43.3732 82.2804 15.586 143.82 15.586 211.203C15.586 314.869 81.3764 404.304 176.486 445.959C195.284 454.252 215.205 460.66 235.841 464.996C239.11 465.184 242.175 465.75 245.137 466.786C256.988 470.744 265.365 481.299 265.365 493.645L265.467 493.551Z" fill="#325F9C"/>
<path d="M621.898 410.8C621.898 506.455 566.017 589.953 482.757 635.095C528.525 588.822 556.312 527.283 556.312 459.9C556.312 356.234 490.522 266.799 395.412 225.144C376.614 216.851 356.795 210.442 336.057 206.107C332.788 205.919 329.723 205.353 326.761 204.317C314.91 200.359 306.533 189.803 306.533 177.458C306.533 165.112 314.604 155.311 325.841 150.976C329.519 149.657 333.401 148.809 337.59 148.809C341.778 148.809 345.252 149.468 349.236 150.316C370.178 150.882 390.406 154.086 409.918 158.798C531.896 187.259 622 289.323 622 410.706L621.898 410.8Z" fill="#32609C"/>
<path d="M594.215 211.101C594.215 219.866 593.5 228.442 592.172 236.829C537.925 165.583 450.17 115.069 348.216 101.498C340.247 100.367 332.279 99.6132 324.209 99.0477C282.221 100.179 247.896 129.205 242.073 166.713C241.358 170.389 241.051 174.253 241.051 178.117C241.051 186.127 242.277 193.761 244.729 201.112C252.493 224.955 272.312 244.086 297.647 252.379C306.331 253.51 314.81 255.112 323.187 256.902C436.992 281.971 520.354 363.396 520.354 459.899C520.354 563.942 423.507 650.55 296.013 667.702H295.911C280.689 669.869 265.058 671 249.122 671C153.092 671 68.709 632.173 20.6943 573.649C20.6943 573.554 20.5922 573.554 20.5922 573.46C-6.47995 540.758 -22.1104 501.648 -22.1104 459.899C-22.1104 451.134 -21.3953 442.559 -20.0672 434.171C34.1792 505.418 121.934 555.931 223.888 569.502C231.857 570.633 239.825 571.387 247.896 571.952C289.883 570.821 324.208 541.795 330.032 504.287C330.747 500.611 331.053 496.747 331.053 492.883C331.053 484.873 329.827 477.239 327.375 469.888C319.611 446.045 299.793 426.914 274.457 418.621C265.774 417.49 257.294 415.888 248.917 414.098C135.112 389.029 51.7507 307.605 51.7507 211.101C51.7507 107.058 148.597 20.4503 276.092 3.29837H276.194C291.415 1.13081 307.046 0 322.983 0C419.012 0 503.395 38.8274 551.41 97.3514C551.41 97.4457 551.512 97.4459 551.512 97.5401C578.584 130.242 594.215 169.352 594.215 211.101Z" fill="#12576C"/>
</svg>
