<svg width="55" height="59" viewBox="0 0 55 59" fill="none" xmlns="http://www.w3.org/2000/svg">
<path d="M54.5703 18.4987C54.5703 19.2668 54.507 20.0183 54.3894 20.7533C49.5864 14.51 41.8164 10.0835 32.7892 8.89426C32.0837 8.79516 31.3782 8.72908 30.6636 8.67953C26.946 8.77863 23.9067 11.3222 23.3912 14.6091C23.3278 14.9311 23.3007 15.2697 23.3007 15.6083C23.3007 16.3103 23.4093 16.9792 23.6263 17.6234C24.3138 19.7127 26.0686 21.3892 28.3118 22.1159C29.0807 22.215 29.8314 22.3554 30.5731 22.5123C40.6496 24.709 48.0306 31.8443 48.0306 40.3008C48.0306 49.4181 39.4556 57.0075 28.1671 58.5106H28.158C26.8103 58.7005 25.4263 58.7996 24.0153 58.7996C15.5127 58.7996 8.04128 55.3972 3.78998 50.2687C3.78998 50.2604 3.78094 50.2605 3.78094 50.2522C1.38394 47.3865 0 43.9593 0 40.3008C0 39.5328 0.0633144 38.7813 0.180903 38.0463C4.98396 44.2897 12.7539 48.7161 21.7811 49.9053C22.4866 50.0044 23.1922 50.0705 23.9067 50.1201C27.6244 50.021 30.6636 47.4774 31.1792 44.1905C31.2425 43.8685 31.2696 43.5299 31.2696 43.1913C31.2696 42.4893 31.1611 41.8204 30.944 41.1762C30.2565 39.0869 28.5017 37.4104 26.2585 36.6837C25.4897 36.5846 24.7389 36.4442 23.9972 36.2873C13.9207 34.0906 6.53976 26.9553 6.53976 18.4987C6.53976 9.38151 15.1147 1.79206 26.4032 0.289035H26.4123C27.76 0.0990929 29.144 0 30.555 0C39.0576 0 46.529 3.40244 50.7803 8.53089C50.7803 8.53915 50.7894 8.53916 50.7894 8.54742C53.1864 11.4131 54.5703 14.8403 54.5703 18.4987Z" fill="#00CCCB"/>
</svg>
