<svg width="606" height="502" viewBox="0 0 606 502" fill="none" xmlns="http://www.w3.org/2000/svg">
<path d="M674.115 446.997C673.298 415.515 670.411 384.381 665.455 353.594C659.52 316.726 650.618 283.844 638.749 254.947C628.858 234.022 617.483 218.578 604.624 208.613C592.755 199.646 576.929 195.162 557.147 195.162C541.321 195.162 526.484 198.649 512.636 205.624C499.778 213.596 489.392 223.062 481.479 234.022C495.327 262.919 506.702 295.801 515.604 332.669C525.495 369.537 530.44 407.401 530.44 446.262C530.44 496.084 521.538 534.446 503.734 561.35C485.93 589.25 458.235 603.2 420.648 603.2L393.942 603.2L373.171 398.433C365.258 317.723 343.497 255.944 307.889 213.097C273.27 171.247 222.825 150.322 156.554 150.322C80.3917 150.322 23.0228 178.72 -15.5528 235.517C-47.7128 284.966 -66.1143 349.735 -70.7574 429.822C-72.8964 413.449 -74 396.748 -74 379.787C-74 170.036 94.7887 -2.55804e-05 303 -1.64792e-05C511.211 -7.37799e-06 680 170.037 680 379.787C680 402.722 677.982 425.182 674.115 446.997Z" fill="url(#paint0_linear_207_1736)" fill-opacity="0.32"/>
<path d="M77.9188 550.887C72.9732 526.973 70.5004 500.568 70.5004 471.671C70.5004 423.842 78.4134 388.967 94.2393 367.046C110.065 346.121 132.32 335.658 161.005 335.658C189.689 335.658 210.461 346.121 223.319 367.046C237.167 387.971 246.069 418.362 250.025 458.219L263.379 603.2L98.6903 603.2C90.7774 592.239 83.8535 574.802 77.9188 550.887Z" fill="url(#paint1_linear_207_1736)" fill-opacity="0.32"/>
<defs>
<linearGradient id="paint0_linear_207_1736" x1="303" y1="-1.64792e-05" x2="303" y2="603.2" gradientUnits="userSpaceOnUse">
<stop stop-color="#7573FF"/>
<stop offset="1" stop-color="#7573FF" stop-opacity="0.2"/>
</linearGradient>
<linearGradient id="paint1_linear_207_1736" x1="303" y1="-1.64792e-05" x2="303" y2="603.2" gradientUnits="userSpaceOnUse">
<stop stop-color="#7573FF"/>
<stop offset="1" stop-color="#7573FF" stop-opacity="0.2"/>
</linearGradient>
</defs>
</svg>
