<svg width="47" height="47" viewBox="0 0 47 47" fill="none" xmlns="http://www.w3.org/2000/svg">
    <path d="M22.0638 34.5709C22.0638 35.4093 21.4993 36.1222 20.7134 36.4258C20.4562 36.5183 20.1847 36.5777 19.8917 36.5777C19.5988 36.5777 19.4416 36.5579 19.0915 36.4985C17.541 36.3136 16.1977 36.208 14.833 35.878C6.3019 33.8844 0 26.7354 0 18.2331C0 11.533 3.90832 5.6844 9.7315 2.52246C6.53054 5.76361 4.5871 10.0742 4.5871 14.794C4.5871 22.0552 9.18848 28.3197 15.8405 31.2374C17.1552 31.8183 18.5484 32.2671 19.9917 32.5708C20.2204 32.584 20.4347 32.6236 20.6419 32.6962C21.4708 32.9735 22.0566 33.7128 22.0566 34.5775L22.0638 34.5709Z" fill="white"/>
    <path d="M46.9922 28.775C46.9922 35.4751 43.0839 41.3237 37.2607 44.4856C40.4617 41.2445 42.4051 36.9339 42.4051 32.2141C42.4051 24.9529 37.8037 18.6884 31.1517 15.7707C29.837 15.1898 28.4509 14.741 27.0005 14.4373C26.7718 14.4241 26.5575 14.3845 26.3503 14.3119C25.5214 14.0346 24.9355 13.2953 24.9355 12.4306C24.9355 11.5658 25.5 10.8793 26.286 10.5756C26.5432 10.4832 26.8147 10.4238 27.1076 10.4238C27.4006 10.4238 27.6435 10.47 27.9222 10.5294C29.3869 10.569 30.8016 10.7935 32.1663 11.1235C40.6974 13.1171 46.9993 20.2661 46.9993 28.7683L46.9922 28.775Z" fill="white"/>
    <path d="M45.056 14.7865C45.056 15.4004 45.006 16.0011 44.9132 16.5886C41.1191 11.5982 34.9816 8.05997 27.8509 7.1094C27.2935 7.03019 26.7362 6.97738 26.1718 6.93777C23.2352 7.01698 20.8345 9.05014 20.4272 11.6774C20.3772 11.9348 20.3558 12.2055 20.3558 12.4761C20.3558 13.0372 20.4415 13.5719 20.613 14.0868C21.156 15.7569 22.5421 17.0969 24.3141 17.6778C24.9214 17.757 25.5144 17.8692 26.1003 17.9947C34.0599 19.7506 39.8902 25.4539 39.8902 32.2135C39.8902 39.5011 33.1167 45.5676 24.1998 46.769H24.1926C23.128 46.9208 22.0348 47 20.9202 47C14.2039 47 8.30211 44.2803 4.94396 40.181C4.94396 40.1744 4.93682 40.1744 4.93682 40.1679C3.04339 37.8773 1.9502 35.1378 1.9502 32.2135C1.9502 31.5996 2.00021 30.9989 2.09309 30.4114C5.88709 35.4018 12.0247 38.94 19.1554 39.8906C19.7127 39.9698 20.27 40.0226 20.8345 40.0622C23.7711 39.983 26.1718 37.9499 26.579 35.3226C26.6291 35.0652 26.6505 34.7945 26.6505 34.5239C26.6505 33.9628 26.5648 33.4281 26.3933 32.9132C25.8503 31.2431 24.4641 29.9031 22.6922 29.3222C22.0848 29.243 21.4918 29.1308 20.9059 29.0053C12.9464 27.2494 7.11605 21.5461 7.11605 14.7865C7.11605 7.49887 13.8895 1.43244 22.8065 0.231033H22.8136C23.8782 0.0792075 24.9714 0 26.086 0C32.8024 0 38.7041 2.71965 42.0623 6.81895C42.0623 6.82555 42.0694 6.82557 42.0694 6.83217C43.9629 9.12276 45.056 11.8622 45.056 14.7865Z" fill="#00CCCB"/>
</svg>
    